<svg width="21" height="20" viewBox="0 0 21 20" fill="none" xmlns="http://www.w3.org/2000/svg">
<path d="M2.5 0.75V0H1.95943L1.78849 0.512829L2.5 0.75ZM5.5 8.25L6.17082 7.91459H4.82918L5.5 8.25ZM10.5 8.25L11.1708 7.91459H9.82918L10.5 8.25ZM15.5 8.25L16.1708 7.91459H14.8292L15.5 8.25ZM18.5 0.75L19.2168 0.529436L19.0539 0H18.5V0.75ZM10.5 0H2.5V1.5H10.5V0ZM1.78849 0.512829C1.43907 1.56108 1.05668 3.22554 0.763788 4.73185C0.475611 6.2139 0.25 7.66383 0.25 8.25H1.75C1.75 7.83617 1.94106 6.5361 2.23621 5.01815C2.52665 3.52446 2.89426 1.93892 3.21151 0.987171L1.78849 0.512829ZM0.25 8.25C0.25 9.97431 1.64855 11 3 11V9.5C2.35145 9.5 1.75 9.02569 1.75 8.25H0.25ZM3 11C3.94664 11 4.63808 10.6726 5.15533 10.1553C5.63191 9.67875 5.9327 9.06166 6.17082 8.58541L4.82918 7.91459C4.5673 8.43834 4.36809 8.82125 4.09467 9.09467C3.86192 9.32742 3.55336 9.5 3 9.5V11ZM4.82918 8.58541C5.0673 9.06166 5.36809 9.67875 5.84467 10.1553C6.36192 10.6726 7.05336 11 8 11V9.5C7.44664 9.5 7.13808 9.32742 6.90533 9.09467C6.63191 8.82125 6.4327 8.43834 6.17082 7.91459L4.82918 8.58541ZM8 11C10.105 11 10.8812 9.16457 11.1708 8.58541L9.82918 7.91459C9.45209 8.66876 9.04797 9.5 8 9.5V11ZM9.82918 8.58541C10.1277 9.18236 10.9793 11 13 11V9.5C12.0207 9.5 11.539 8.65097 11.1708 7.91459L9.82918 8.58541ZM13 11C13.9661 11 14.6893 10.5352 15.1889 10.0244C15.6801 9.52199 15.9952 8.93659 16.1708 8.58541L14.8292 7.91459C14.6714 8.23007 14.4401 8.64468 14.1164 8.97563C13.8011 9.29811 13.441 9.5 13 9.5V11ZM14.8292 8.58541C15.1277 9.18236 15.9793 11 18 11V9.5C17.0207 9.5 16.539 8.65097 16.1708 7.91459L14.8292 8.58541ZM18 11C18.8645 11 19.6087 10.7829 20.1175 10.2233C20.6131 9.67809 20.75 8.95319 20.75 8.25H19.25C19.25 8.79681 19.1369 9.07191 19.0075 9.21425C18.8913 9.34206 18.6355 9.5 18 9.5V11ZM20.75 8.25C20.75 7.66208 20.5235 6.25151 20.2358 4.79241C19.9423 3.30376 19.5614 1.64938 19.2168 0.529436L17.7832 0.970564C18.1052 2.01728 18.4744 3.61291 18.7642 5.08259C19.0598 6.58183 19.25 7.83792 19.25 8.25H20.75ZM18.5 0H10.5V1.5H18.5V0Z" fill="#008DE4"/>
<path d="M2.5 10.25V17.75C2.5 18.5784 3.17157 19.25 4 19.25H8" stroke="#008DE4" stroke-width="1.5"/>
<path d="M18.5 10.25V17.75C18.5 18.5784 17.8284 19.25 17 19.25H12C11.1716 19.25 10.5 18.5784 10.5 17.75V14.25" stroke="#008DE4" stroke-width="1.5"/>
</svg>
