<?xml version="1.0" encoding="UTF-8"?>
<svg xmlns="http://www.w3.org/2000/svg" width="60" height="60" viewBox="0 0 60 60" fill="none">
  <path d="M46.7895 39.0821L36.192 45.162C34.9253 46.0909 33.4053 46.6399 31.8432 46.6399H12V34.6069L31.0832 34.6069C32.4345 34.6069 33.5321 35.7045 33.5321 37.0557C33.5321 38.2379 32.6877 39.2089 31.5897 39.42H36.572L44.3829 34.9025C45.523 34.2269 47.0006 34.6492 47.6762 35.7893C48.3518 36.9712 47.9293 38.4065 46.7895 39.0821Z" fill="#80C6F2"></path>
  <path d="M18.5866 31.3401H13.0136C12.4646 31.3401 12.0002 31.8607 12.0002 32.476V48.7741C12.0002 49.3895 12.4646 49.9101 13.0136 49.9101H18.5869C19.1359 49.9101 19.6003 49.3895 19.6003 48.7741L19.6 32.476C19.6 31.8607 19.1356 31.3401 18.5866 31.3401Z" fill="#78C4F5"></path>
  <path fill-rule="evenodd" clip-rule="evenodd" d="M19.5999 34.6068H12V46.6399H19.6001L19.5999 34.6068Z" fill="#008DE4"></path>
  <path d="M38.5626 30.3401C39.4141 30.3401 40.213 30.178 40.9591 29.8538C41.7052 29.5335 42.3614 29.0881 42.9279 28.5178C43.4982 27.9514 43.9454 27.2951 44.2697 26.549C44.5939 25.8029 44.756 25.0041 44.756 24.1525C44.756 23.3049 44.5939 22.508 44.2697 21.7619C43.9454 21.0158 43.4982 20.3576 42.9279 19.7873C42.3614 19.2169 41.7032 18.7716 40.9532 18.4513C40.2071 18.1271 39.4102 17.965 38.5626 17.965C37.7149 17.965 36.9161 18.1271 36.1661 18.4513C35.42 18.7716 34.7617 19.2169 34.1914 19.7873C33.625 20.3576 33.1797 21.0158 32.8555 21.7619C32.5352 22.508 32.375 23.3049 32.375 24.1525C32.375 25.0041 32.5352 25.8029 32.8555 26.549C33.1797 27.2951 33.627 27.9514 34.1973 28.5178C34.7676 29.0881 35.4258 29.5335 36.1719 29.8538C36.918 30.178 37.7149 30.3401 38.5626 30.3401ZM36.3711 24.8498C36.1641 24.8498 35.9922 24.7873 35.8555 24.6623C35.7227 24.5334 35.6563 24.3674 35.6563 24.1643C35.6563 23.9572 35.7227 23.7892 35.8555 23.6603C35.9883 23.5314 36.1602 23.467 36.3711 23.467H40.7716C40.9825 23.467 41.1524 23.5314 41.2813 23.6603C41.4142 23.7892 41.4806 23.9572 41.4806 24.1643C41.4806 24.3674 41.4122 24.5334 41.2755 24.6623C41.1427 24.7873 40.9747 24.8498 40.7716 24.8498H36.3711Z" fill="#008DE4"></path>
  <path d="M26.1876 22.465C27.0391 22.465 27.838 22.3029 28.5841 21.9787C29.3302 21.6584 29.9864 21.213 30.5529 20.6427C31.1232 20.0763 31.5704 19.4201 31.8947 18.674C32.2189 17.9279 32.381 17.129 32.381 16.2774C32.381 15.4298 32.2189 14.6329 31.8947 13.8868C31.5704 13.1407 31.1232 12.4825 30.5529 11.9122C29.9864 11.3418 29.3282 10.8965 28.5782 10.5762C27.8321 10.252 27.0352 10.0899 26.1876 10.0899C25.3399 10.0899 24.5411 10.252 23.7911 10.5762C23.045 10.8965 22.3867 11.3418 21.8164 11.9122C21.25 12.4825 20.8047 13.1407 20.4805 13.8868C20.1602 14.6329 20 15.4298 20 16.2774C20 17.129 20.1602 17.9279 20.4805 18.674C20.8047 19.4201 21.252 20.0763 21.8223 20.6427C22.3926 21.213 23.0508 21.6584 23.7969 21.9787C24.543 22.3029 25.3399 22.465 26.1876 22.465ZM23.3164 16.2774C23.3164 16.0743 23.3809 15.9083 23.5098 15.7794C23.6426 15.6466 23.8067 15.5802 24.002 15.5802H25.502V14.0802C25.502 13.8848 25.5665 13.7227 25.6954 13.5938C25.8243 13.461 25.9883 13.3946 26.1876 13.3946C26.3868 13.3946 26.5509 13.461 26.6798 13.5938C26.8126 13.7227 26.879 13.8848 26.879 14.0802V15.5802H28.3849C28.5802 15.5802 28.7423 15.6466 28.8712 15.7794C29.0001 15.9083 29.0646 16.0743 29.0646 16.2774C29.0646 16.4728 29.0001 16.6368 28.8712 16.7696C28.7423 16.8985 28.5802 16.963 28.3849 16.963H26.879V18.463C26.879 18.6583 26.8126 18.8204 26.6798 18.9493C26.5509 19.0783 26.3868 19.1427 26.1876 19.1427C25.9883 19.1427 25.8243 19.0783 25.6954 18.9493C25.5665 18.8204 25.502 18.6583 25.502 18.463V16.963H24.002C23.8067 16.963 23.6426 16.8985 23.5098 16.7696C23.3809 16.6368 23.3164 16.4728 23.3164 16.2774Z" fill="#78C4F5"></path>
</svg>
