<?xml version="1.0" encoding="UTF-8"?>
<svg xmlns="http://www.w3.org/2000/svg" width="60" height="60" viewBox="0 0 60 60" fill="none">
  <rect x="15.8335" y="21.5" width="28.3333" height="25.5" rx="4" fill="#0E94E6"></rect>
  <path d="M15.8136 15.6172C16.3929 14.0447 17.8911 13 19.5669 13H40.4331C42.1089 13 43.6071 14.0447 44.1864 15.6172L47.8555 25.5761C48.9021 28.4169 47.1929 31.4846 44.1921 31.8855C40.6487 32.3588 35.6802 32.8333 30 32.8333C24.3198 32.8333 19.3513 32.3588 15.808 31.8855C12.8071 31.4846 11.0979 28.4169 12.1445 25.5761L15.8136 15.6172Z" fill="#BCE1FA"></path>
  <path fill-rule="evenodd" clip-rule="evenodd" d="M44.1668 31.8888C40.6251 32.3611 35.6667 32.8333 29.9998 32.8333C24.3333 32.8333 19.3751 32.3611 15.8335 31.8889V25.5C15.8335 23.2909 17.6244 21.5 19.8335 21.5H40.1668C42.376 21.5 44.1668 23.2909 44.1668 25.5V31.8888Z" fill="#62BAF2"></path>
  <rect x="23.3891" y="26.2222" width="13.2222" height="2.83333" rx="1.41667" fill="white"></rect>
</svg>
