<?xml version="1.0" encoding="UTF-8"?>
<svg xmlns="http://www.w3.org/2000/svg" width="60" height="60" viewBox="0 0 60 60" fill="none">
  <path d="M30 51.1225C30.2226 51.1225 30.4661 51.0807 30.7305 50.9972C31.0088 50.9277 31.2871 50.8233 31.5654 50.6842C34.5988 49.1675 37.1521 47.776 39.2254 46.5098C41.2987 45.2435 42.9615 43.9842 44.2138 42.7319C45.48 41.4657 46.3914 40.109 46.948 38.6619C47.5185 37.2148 47.8038 35.5589 47.8038 33.6944V18.5204C47.8038 17.0594 47.5324 15.9601 46.9898 15.2226C46.461 14.4852 45.5566 13.8521 44.2764 13.3233C43.8729 13.1424 43.2885 12.9128 42.5232 12.6345C41.7579 12.3562 40.9021 12.0571 39.9559 11.737C39.0097 11.4031 38.0705 11.0761 37.1382 10.756C36.2059 10.436 35.3571 10.1508 34.5918 9.90029C33.8404 9.64983 33.2769 9.46198 32.9012 9.33675C32.4559 9.1976 31.9689 9.08628 31.4401 9.0028C30.9253 8.91931 30.4452 8.87756 30 8.87756C29.5547 8.87756 29.0746 8.91931 28.5598 9.0028C28.0589 9.08628 27.5788 9.1976 27.1196 9.33675C26.7439 9.46198 26.1734 9.64983 25.4081 9.90029C24.6567 10.1508 23.8079 10.436 22.8618 10.756C21.9295 11.0761 20.9902 11.4031 20.044 11.737C19.1118 12.0571 18.263 12.3632 17.4977 12.6554C16.7323 12.9337 16.1479 13.1563 15.7444 13.3233C14.4643 13.8521 13.5528 14.4852 13.0102 15.2226C12.4675 15.9601 12.1962 17.0594 12.1962 18.5204V33.6944C12.1962 35.5589 12.4814 37.2078 13.0519 38.641C13.6363 40.0742 14.5617 41.41 15.8279 42.6484C17.0941 43.8868 18.7639 45.1392 20.8372 46.4054C22.9244 47.6855 25.4638 49.1118 28.4554 50.6842C28.7337 50.8233 29.0051 50.9277 29.2695 50.9972C29.5477 51.0807 29.7913 51.1225 30 51.1225Z" fill="#008DE4"></path>
  <path fill-rule="evenodd" clip-rule="evenodd" d="M28.2592 7.14944C28.8571 7.0525 29.4387 7 30 7C30.56 7 31.1403 7.05227 31.7368 7.14881C32.3417 7.24449 32.918 7.3749 33.4612 7.54465L33.4781 7.54993L35.1807 8.11747C35.9549 8.37088 36.8108 8.65854 37.7478 8.9802C38.6814 9.30071 39.6219 9.62811 40.5692 9.9624C41.5213 10.2845 42.3868 10.5871 43.1648 10.87C43.9295 11.1481 44.5553 11.3921 45.0188 11.5985C46.4507 12.1933 47.6996 12.9956 48.5091 14.1195C49.3874 15.3194 49.6813 16.884 49.6813 18.5204V33.6943C49.6813 35.7459 49.3679 37.6396 48.6977 39.343C48.0331 41.0676 46.9629 42.6381 45.5414 44.0595C44.1534 45.4476 42.3608 46.7949 40.204 48.1121C38.0718 49.4143 35.4688 50.8316 32.405 52.3635C32.0315 52.5502 31.6431 52.6997 31.2409 52.8046C30.852 52.9228 30.4342 53 30 53C29.5642 53 29.1425 52.9171 28.7602 52.8046C28.3662 52.6984 27.9843 52.5478 27.6158 52.3635L27.5988 52.355L27.5819 52.3461C24.5671 50.7616 21.99 49.315 19.8574 48.0071C17.705 46.6924 15.9118 45.3568 14.5151 43.9907C13.0915 42.5984 12.0079 41.0531 11.3133 39.3499L11.3104 39.3427L11.3075 39.3354C10.6328 37.6404 10.3186 35.7484 10.3186 33.6943V18.5204C10.3186 16.8796 10.6141 15.311 11.4979 14.1098C12.3224 12.9894 13.5804 12.1859 15.0265 11.5884M28.8644 10.8555C28.4489 10.9249 28.057 11.0157 27.6875 11.1265C27.3077 11.2531 26.7434 11.4388 25.997 11.6831C25.2511 11.9317 24.4079 12.2151 23.4673 12.5332C22.5415 12.8511 21.6087 13.1758 20.6689 13.5075L20.6613 13.5102L20.6536 13.5128C19.7376 13.8273 18.9093 14.1262 18.1674 14.4094L18.1534 14.4148L18.1393 14.4199C17.3818 14.6953 16.8277 14.907 16.4623 15.0582L16.4612 15.0586C15.3475 15.5186 14.7831 15.9812 14.5224 16.3354C14.3209 16.6093 14.0737 17.2391 14.0737 18.5204V33.6943C14.0737 35.366 14.329 36.7694 14.7934 37.9393C15.268 39.1 16.0341 40.2239 17.1407 41.3061C18.2762 42.4167 19.8221 43.5854 21.8158 44.803L21.8188 44.8049C23.856 46.0543 26.3508 47.4565 29.3103 49.0124C29.4819 49.0971 29.6272 49.1499 29.7473 49.1815L29.7783 49.1896L29.8089 49.1989C29.8874 49.2224 29.943 49.2346 29.978 49.2406C29.9902 49.2427 29.9989 49.2438 30.0043 49.2445C30.0203 49.243 30.0718 49.2363 30.1651 49.2068L30.2196 49.1896L30.2751 49.1757C30.4098 49.142 30.5597 49.0878 30.7257 49.0048C33.7287 47.5033 36.2324 46.1376 38.2468 44.9074C40.2366 43.6922 41.7696 42.5209 42.8861 41.4043C43.9952 40.2952 44.7468 39.1547 45.1956 37.9879L45.1984 37.9806L45.2013 37.9733C45.67 36.7843 45.9262 35.3689 45.9262 33.6943V18.5204C45.9262 17.2391 45.679 16.6093 45.4775 16.3354L45.4706 16.3261L45.4639 16.3167C45.2204 15.9771 44.6734 15.5187 43.5596 15.0586L43.5338 15.048L43.5084 15.0366C43.1673 14.8837 42.6332 14.6723 41.8815 14.399C41.1321 14.1265 40.29 13.8321 39.3543 13.5156L39.3426 13.5116L39.331 13.5075C38.3898 13.1753 37.4557 12.8501 36.5286 12.5319C35.603 12.2141 34.7629 11.9318 34.0078 11.6847L33.998 11.6815L32.3253 11.1239C31.9828 11.0178 31.5916 10.9275 31.1473 10.8574L31.1396 10.8561C30.7077 10.7861 30.3292 10.7551 30 10.7551C29.6717 10.7551 29.2945 10.7859 28.8644 10.8555ZM28.2592 7.14944L28.2511 7.15078L28.2592 7.14944ZM28.2511 7.15078C27.6751 7.24678 27.116 7.37597 26.5751 7.53987L28.2511 7.15078ZM26.5751 7.53987L26.5504 7.54736L26.5751 7.53987ZM26.5504 7.54736L26.5259 7.55553L26.5504 7.54736ZM26.5259 7.55553C26.1553 7.67907 25.5888 7.86561 24.8241 8.11586L26.5259 7.55553ZM24.8241 8.11586L24.8144 8.11908L24.8241 8.11586ZM24.8144 8.11908C24.0598 8.3706 23.2083 8.65676 22.2602 8.97746L24.8144 8.11908ZM22.2602 8.97746L22.2521 8.9802L22.2602 8.97746ZM22.2521 8.9802C21.3172 9.30116 20.3754 9.62903 19.4267 9.96382L22.2521 8.9802ZM19.4267 9.96382C18.4868 10.2866 17.6248 10.5973 16.842 10.896C16.0761 11.1746 15.4665 11.4064 15.0276 11.5879" fill="#BCE1FA"></path>
  <path d="M22.2563 37.18V28.9564C22.2563 27.5232 22.8268 26.7092 23.9679 26.5144V24.2811C23.9679 22.2495 24.5244 20.6146 25.6376 19.3762C26.7508 18.1378 28.2118 17.5186 30.0207 17.5186C31.8296 17.5186 33.2907 18.1378 34.4038 19.3762C35.5309 20.6146 36.0945 22.2495 36.0945 24.2811V26.5353C37.2216 26.7161 37.7851 27.5232 37.7851 28.9564V37.18C37.7851 38.8636 36.9989 39.7055 35.4266 39.7055H24.6358C23.0495 39.7055 22.2563 38.8636 22.2563 37.18ZM27.036 26.4309H33.0054V24.0932C33.0054 23.0079 32.7341 22.1452 32.1914 21.5051C31.6487 20.8511 30.9182 20.5241 29.9999 20.5241C29.1093 20.5241 28.3927 20.8511 27.85 21.5051C27.3074 22.1452 27.036 23.0079 27.036 24.0932V26.4309Z" fill="white"></path>
  <mask id="mask0_37_1163" style="mask-type:alpha" maskUnits="userSpaceOnUse" x="12" y="8" width="36" height="43">
    <path d="M30 50.9075C30.2226 50.9075 30.4661 50.8658 30.7305 50.7823C31.0088 50.7127 31.2871 50.6083 31.5654 50.4692C34.5988 48.9525 37.1521 47.561 39.2254 46.2948C41.2987 45.0286 42.9615 43.7693 44.2138 42.517C45.48 41.2507 46.3914 39.894 46.948 38.4469C47.5185 36.9998 47.8038 35.344 47.8038 33.4794V18.3055C47.8038 16.8444 47.5324 15.7452 46.9898 15.0077C46.461 14.2702 45.5566 13.6371 44.2764 13.1083C43.8729 12.9274 43.2885 12.6978 42.5232 12.4196C41.7579 12.1413 40.9021 11.8421 39.9559 11.5221C39.0097 11.1881 38.0705 10.8611 37.1382 10.5411C36.2059 10.221 35.3571 9.93579 34.5918 9.68532C33.8404 9.43486 33.2769 9.24701 32.9012 9.12178C32.4559 8.98263 31.9689 8.87132 31.4401 8.78783C30.9253 8.70434 30.4452 8.6626 30 8.6626C29.5547 8.6626 29.0746 8.70434 28.5598 8.78783C28.0589 8.87132 27.5788 8.98263 27.1196 9.12178C26.7439 9.24701 26.1734 9.43486 25.4081 9.68532C24.6567 9.93579 23.8079 10.221 22.8618 10.5411C21.9295 10.8611 20.9902 11.1881 20.044 11.5221C19.1118 11.8421 18.263 12.1482 17.4977 12.4404C16.7323 12.7187 16.1479 12.9414 15.7444 13.1083C14.4643 13.6371 13.5528 14.2702 13.0102 15.0077C12.4675 15.7452 12.1962 16.8444 12.1962 18.3055V33.4794C12.1962 35.344 12.4814 36.9928 13.0519 38.4261C13.6363 39.8593 14.5617 41.1951 15.8279 42.4335C17.0941 43.6719 18.7639 44.9242 20.8372 46.1904C22.9244 47.4706 25.4638 48.8968 28.4554 50.4692C28.7337 50.6083 29.0051 50.7127 29.2695 50.7823C29.5477 50.8658 29.7913 50.9075 30 50.9075Z" fill="#62BAF2"></path>
  </mask>
  <g mask="url(#mask0_37_1163)">
    <path fill-rule="evenodd" clip-rule="evenodd" d="M28.2594 6.93448C28.8572 6.83753 29.4388 6.78503 30.0001 6.78503C30.5601 6.78503 31.1404 6.8373 31.7369 6.93385C32.3418 7.02953 32.9181 7.15994 33.4613 7.32968L33.4782 7.33497L35.1808 7.9025C35.955 8.15591 36.8109 8.44357 37.7479 8.76523C38.6816 9.08574 39.622 9.41314 40.5693 9.74743C41.5214 10.0696 42.3869 10.3721 43.1649 10.655C43.9297 10.9331 44.5554 11.1771 45.0189 11.3836C46.4508 11.9784 47.6997 12.7806 48.5092 13.9045C49.3875 15.1044 49.6814 16.669 49.6814 18.3054V33.4794C49.6814 35.5309 49.368 37.4247 48.6978 39.128C48.0332 40.8527 46.963 42.4231 45.5415 43.8446C44.1535 45.2326 42.3609 46.5799 40.2041 47.8971C38.0719 49.1993 35.4689 50.6166 32.4051 52.1485C32.0316 52.3353 31.6432 52.4847 31.241 52.5897C30.8521 52.7078 30.4343 52.785 30.0001 52.785C29.5643 52.785 29.1427 52.7022 28.7604 52.5896C28.3663 52.4834 27.9845 52.3328 27.6159 52.1485L27.5989 52.14L27.582 52.1312C24.5673 50.5466 21.9901 49.1 19.8576 47.7921C17.7051 46.4774 15.9119 45.1418 14.5152 43.7758C13.0916 42.3834 12.008 40.8382 11.3135 39.135L11.3105 39.1277L11.3076 39.1204C10.6329 37.4254 10.3187 35.5334 10.3187 33.4794V18.3054C10.3187 16.6646 10.6142 15.096 11.498 13.8949C12.3225 12.7744 13.5805 11.9709 15.0266 11.3734M28.8645 10.6405C28.449 10.7099 28.0571 10.8007 27.6877 10.9116C27.3078 11.0381 26.7436 11.2238 25.9972 11.4681C25.2512 11.7168 24.408 12.0001 23.4674 12.3183C22.5417 12.6361 21.6089 12.9609 20.669 13.2926L20.6614 13.2953L20.6538 13.2979C19.7377 13.6123 18.9094 13.9112 18.1675 14.1945L18.1535 14.1998L18.1394 14.2049C17.3819 14.4804 16.8278 14.692 16.4624 14.8432L16.4613 14.8437C15.3476 15.3037 14.7832 15.7662 14.5225 16.1205C14.321 16.3943 14.0738 17.0242 14.0738 18.3054V33.4794C14.0738 35.151 14.3291 36.5544 14.7936 37.7243C15.2681 38.885 16.0343 40.0089 17.1408 41.0912C18.2763 42.2017 19.8222 43.3705 21.8159 44.5881L21.8189 44.5899C23.8561 45.8394 26.351 47.2416 29.3104 48.7974C29.482 48.8821 29.6273 48.9349 29.7474 48.9665L29.7784 48.9747L29.8091 48.9839C29.8876 49.0074 29.9432 49.0196 29.9781 49.0256C29.9904 49.0277 29.9991 49.0289 30.0044 49.0295C30.0204 49.028 30.072 49.0213 30.1652 48.9919L30.2197 48.9746L30.2752 48.9608C30.4099 48.9271 30.5598 48.8728 30.7258 48.7898C33.7288 47.2883 36.2325 45.9227 38.2469 44.6924C40.2367 43.4772 41.7697 42.3059 42.8863 41.1893C43.9953 40.0802 44.747 38.9397 45.1957 37.7729L45.1985 37.7656L45.2014 37.7583C45.6701 36.5693 45.9263 35.1539 45.9263 33.4794V18.3054C45.9263 17.0242 45.6791 16.3943 45.4776 16.1205L45.4707 16.1111L45.464 16.1017C45.2205 15.7621 44.6736 15.3037 43.5597 14.8437L43.534 14.833L43.5085 14.8216C43.1674 14.6687 42.6333 14.4574 41.8816 14.1841C41.1322 13.9115 40.2901 13.6171 39.3544 13.3006L39.3428 13.2967L39.3311 13.2926C38.3899 12.9604 37.4558 12.6351 36.5287 12.3169C35.6031 11.9992 34.763 11.7169 34.0079 11.4697L33.9982 11.4665L32.3254 10.9089C31.983 10.8029 31.5917 10.7125 31.1474 10.6424L31.1397 10.6412C30.7078 10.5711 30.3293 10.5401 30.0001 10.5401C29.6718 10.5401 29.2947 10.5709 28.8645 10.6405ZM28.2594 6.93448L28.2512 6.93581L28.2594 6.93448ZM28.2512 6.93581C27.6752 7.03182 27.1161 7.16101 26.5752 7.32491L28.2512 6.93581ZM26.5752 7.32491L26.5505 7.3324L26.5752 7.32491ZM26.5505 7.3324L26.526 7.34057L26.5505 7.3324ZM26.526 7.34057C26.1554 7.46411 25.5889 7.65064 24.8243 7.90089L26.526 7.34057ZM24.8243 7.90089L24.8145 7.90411L24.8243 7.90089ZM24.8145 7.90411C24.0599 8.15564 23.2085 8.44179 22.2603 8.7625L24.8145 7.90411ZM22.2603 8.7625L22.2522 8.76523L22.2603 8.7625ZM22.2522 8.76523C21.3173 9.0862 20.3755 9.41407 19.4269 9.74885L22.2522 8.76523ZM19.4269 9.74885C18.4869 10.0716 17.6249 10.3823 16.8421 10.681C16.0762 10.9596 15.4666 11.1914 15.0277 11.373" fill="#62BAF2"></path>
  </g>
</svg>
