<?xml version="1.0" encoding="UTF-8"?>
<svg xmlns="http://www.w3.org/2000/svg" width="60" height="60" viewBox="0 0 60 60" fill="none">
  <mask id="mask0_37_1121" style="mask-type:alpha" maskUnits="userSpaceOnUse" x="7" y="7" width="46" height="46">
    <rect x="7.5" y="7.5" width="45" height="45" rx="9" fill="#D9D9D9"></rect>
  </mask>
  <g mask="url(#mask0_37_1121)">
    <rect x="7.5" y="7.5" width="45" height="45" rx="9" fill="#BCE1FA"></rect>
    <rect x="17.04" y="16.6492" width="26.0101" height="46" rx="4" fill="#008DE4"></rect>
    <mask id="mask1_37_1121" style="mask-type:alpha" maskUnits="userSpaceOnUse" x="17" y="16" width="27" height="47">
      <rect x="17.04" y="16.6492" width="26.0101" height="46" rx="4" fill="#62BAF2"></rect>
    </mask>
    <g mask="url(#mask1_37_1121)">
      <path d="M21.746 64.1362H38.3391C40.2595 64.1362 41.7673 63.6045 42.8624 62.5411C43.9733 61.4778 44.5288 60.0097 44.5288 58.1369V21.1654C44.5288 19.3085 43.9733 17.8483 42.8624 16.785C41.7673 15.7058 40.2595 15.1661 38.3391 15.1661H21.746C19.8256 15.1661 18.3099 15.7058 17.1989 16.785C16.1038 17.8483 15.5563 19.3085 15.5563 21.1654V58.1369C15.5563 60.0097 16.1038 61.4778 17.1989 62.5411C18.3099 63.6045 19.8256 64.1362 21.746 64.1362ZM22.0793 61.2318C20.8889 61.2318 19.9922 60.9381 19.3891 60.3509C18.786 59.7637 18.4845 58.8908 18.4845 57.7322V21.5939C18.4845 20.4194 18.786 19.5465 19.3891 18.9752C19.9922 18.388 20.8889 18.0943 22.0793 18.0943H25.0075C25.3566 18.0943 25.5312 18.2689 25.5312 18.6181V19.0466C25.5312 19.491 25.6661 19.856 25.9359 20.1417C26.2216 20.4115 26.5866 20.5464 27.031 20.5464H33.0779C33.5381 20.5464 33.8952 20.4115 34.1492 20.1417C34.419 19.856 34.5539 19.491 34.5539 19.0466V18.6181C34.5539 18.2689 34.7285 18.0943 35.0776 18.0943H38.0058C39.1962 18.0943 40.0929 18.388 40.696 18.9752C41.2991 19.5465 41.6006 20.4194 41.6006 21.5939V57.7322C41.6006 58.8908 41.2991 59.7637 40.696 60.3509C40.0929 60.9381 39.1962 61.2318 38.0058 61.2318H22.0793Z" fill="#62BAF2"></path>
    </g>
    <path fill-rule="evenodd" clip-rule="evenodd" d="M26.9672 29.4735H32.3763C37.1292 29.4735 37.9716 32.0628 37.2888 35.7073C36.8366 38.1547 35.7016 40.0257 33.804 40.9036C32.9527 41.3026 32.1369 41.5243 30.2393 41.5243H24.8479L25.3002 39.0148H30.0442C32.8995 39.0237 33.6532 37.7822 34.0256 36.7004C34.1675 36.2925 34.4867 35.0422 34.4956 34.2974C34.5133 32.852 33.804 31.983 31.4009 31.983L26.5238 31.9741L26.9672 29.4735ZM22.8926 35.7082C23.0258 35.148 23.2404 34.2454 24.644 34.2454H30.1772C30.1772 34.2454 30.124 34.5469 29.9467 35.274C29.9453 35.28 29.9438 35.286 29.9424 35.2921C29.8092 35.8523 29.5945 36.7549 28.191 36.7549H22.6577C22.6577 36.7549 22.7109 36.4534 22.8883 35.7263C22.8897 35.7203 22.8911 35.7143 22.8926 35.7082Z" fill="white"></path>
  </g>
</svg>
