<?xml version="1.0" encoding="UTF-8"?>
<svg xmlns="http://www.w3.org/2000/svg" width="60" height="60" viewBox="0 0 60 60" fill="none">
  <path d="M37.0237 14.4559C38.1858 12.8781 40.4245 12.5283 42.0241 13.6747C43.6236 14.821 43.9782 17.0295 42.816 18.6073L22.9763 45.5441C21.8142 47.1219 19.5755 47.4717 17.9759 46.3253C16.3764 45.179 16.0218 42.9705 17.184 41.3927L37.0237 14.4559Z" fill="#008DE4"></path>
  <path d="M20.4399 25C22.0312 25 23.5574 24.3679 24.6826 23.2426C25.8078 22.1174 26.4399 20.5913 26.4399 19C26.4399 17.4087 25.8078 15.8826 24.6826 14.7574C23.5574 13.6321 22.0312 13 20.4399 13C18.8486 13 17.3225 13.6321 16.1973 14.7574C15.0721 15.8826 14.4399 17.4087 14.4399 19C14.4399 20.5913 15.0721 22.1174 16.1973 23.2426C17.3225 24.3679 18.8486 25 20.4399 25Z" fill="#008DE4"></path>
  <path d="M39.5601 47C41.1514 47 42.6775 46.3679 43.8027 45.2426C44.9279 44.1174 45.5601 42.5913 45.5601 41C45.5601 39.4087 44.9279 37.8826 43.8027 36.7574C42.6775 35.6321 41.1514 35 39.5601 35C37.9688 35 36.4426 35.6321 35.3174 36.7574C34.1922 37.8826 33.5601 39.4087 33.5601 41C33.5601 42.5913 34.1922 44.1174 35.3174 45.2426C36.4426 46.3679 37.9688 47 39.5601 47Z" fill="#008DE4"></path>
  <rect opacity="0.5" x="15.7598" y="22.7617" width="12" height="29.5261" transform="rotate(-41 15.7598 22.7617)" fill="#78C4F5"></rect>
  <path fill-rule="evenodd" clip-rule="evenodd" d="M24.6826 23.2426C23.5574 24.3679 22.0312 25 20.4399 25C18.8486 25 17.3225 24.3679 16.1973 23.2426C16.0432 23.0886 15.8984 22.927 15.7632 22.7588L24.813 14.8919C24.8575 14.9392 24.9011 14.9872 24.9439 15.0358L24.9927 15.092C25.9233 16.176 26.4399 17.5614 26.4399 19C26.4399 20.5913 25.8078 22.1174 24.6826 23.2426Z" fill="#62BAF2"></path>
  <path fill-rule="evenodd" clip-rule="evenodd" d="M44.1835 37.1759L35.1307 45.0454L34.908 44.7893C34.0401 43.7238 33.5601 42.3866 33.5601 41C33.5601 39.4087 34.1922 37.8826 35.3174 36.7574C36.4426 35.6321 37.9688 35 39.5601 35C41.1514 35 42.6775 35.6321 43.8027 36.7574C43.9367 36.8914 44.0637 37.0311 44.1835 37.1759Z" fill="#62BAF2"></path>
  <path opacity="0.3" d="M37.0237 14.4559C38.1858 12.8781 40.4245 12.5283 42.0241 13.6747C43.6236 14.821 43.9782 17.0295 42.816 18.6073L22.9763 45.5441C21.8142 47.1219 19.5755 47.4717 17.9759 46.3253C16.3764 45.179 16.0218 42.9705 17.184 41.3927L37.0237 14.4559Z" fill="#30A3EB"></path>
</svg>
