<?xml version="1.0" encoding="UTF-8"?>
<svg xmlns="http://www.w3.org/2000/svg" width="60" height="60" viewBox="0 0 60 60" fill="none">
  <path d="M9.66838 37.8835L5.14193 51.9658C5.01125 52.3723 5.41749 52.745 5.81131 52.5799L21.4139 46.0368C21.6525 45.9368 21.9204 45.9331 22.1617 46.0265L38.3795 52.3043C38.6245 52.3992 38.897 52.3938 39.1381 52.2893L54.8893 45.4638C55.0721 45.3846 55.1905 45.2043 55.1905 45.0051V31.317C55.1905 30.9552 54.818 30.7131 54.4874 30.8601L40.7871 36.9491C40.5425 37.0578 40.2645 37.0639 40.0153 36.966L25.4536 31.2454C25.2087 31.1492 24.9358 31.1533 24.694 31.257L9.94744 37.5769C9.81444 37.6339 9.71266 37.7457 9.66838 37.8835Z" fill="#BCE1FA"></path>
  <path d="M11.9287 38.2142L8.64301 49.1666L21.5668 43.6904L24.3049 32.738L11.9287 38.2142Z" fill="#62BAF2"></path>
  <path d="M51.3573 33.8333L40.6237 38.7618L38.9811 50.2618L51.3573 44.7856V33.8333Z" fill="#62BAF2"></path>
  <path d="M33.8723 7.00003C36.7843 7.01265 39.5675 8.14636 41.6033 10.1366C43.652 12.1395 44.7988 14.8478 44.786 17.6569V17.7199C44.786 26.7143 37.5038 36.6851 34.6583 38.4501C34.1557 38.8658 33.4213 38.8658 32.9188 38.4501C28.9261 35.9084 22.8813 26.7143 22.8813 17.5688C22.9071 11.7112 27.8292 6.98745 33.8723 7.00003ZM33.8723 14.4699C31.9524 14.4699 30.4062 15.969 30.4062 17.8333C30.4062 19.6737 31.9266 21.1588 33.8336 21.184H33.8723C34.7871 21.184 35.6633 20.8439 36.3075 20.2267C36.9776 19.5842 37.3525 18.7289 37.3525 17.8333C37.3525 15.969 35.7921 14.4699 33.8723 14.4699Z" fill="#0E94E6"></path>
</svg>
