<?xml version="1.0" encoding="UTF-8"?>
<svg xmlns="http://www.w3.org/2000/svg" width="60" height="60" viewBox="0 0 60 60" fill="none">
  <path d="M28.5 7.86604C29.4282 7.33014 30.5718 7.33014 31.5 7.86604L48.4186 17.634C49.3468 18.1699 49.9186 19.1603 49.9186 20.2321V39.768C49.9186 40.8398 49.3468 41.8301 48.4186 42.366L31.5 52.134C30.5718 52.6699 29.4282 52.6699 28.5 52.134L11.5814 42.366C10.6532 41.8301 10.0814 40.8398 10.0814 39.768V20.2321C10.0814 19.1603 10.6532 18.1699 11.5814 17.634L28.5 7.86604Z" fill="#008DE4"></path>
  <path fill-rule="evenodd" clip-rule="evenodd" d="M27.625 6.35049C29.0947 5.50198 30.9053 5.50199 32.375 6.35049L49.2936 16.1184C50.7632 16.9669 51.6686 18.535 51.6686 20.2321V39.768C51.6686 41.465 50.7632 43.0331 49.2936 43.8816L32.375 53.6495C30.9053 54.498 29.0947 54.498 27.625 53.6495L10.7064 43.8816C9.23677 43.0331 8.33142 41.465 8.33142 39.768V20.2321C8.33142 18.535 9.23677 16.9669 10.7064 16.1184L27.625 6.35049ZM30.625 9.38158C30.2383 9.15829 29.7618 9.15829 29.375 9.38158L12.4564 19.1495C12.0697 19.3728 11.8314 19.7855 11.8314 20.2321V39.768C11.8314 40.2145 12.0697 40.6272 12.4564 40.8505L29.375 50.6184C29.7618 50.8417 30.2383 50.8417 30.625 50.6184L47.5436 40.8505C47.9303 40.6272 48.1686 40.2145 48.1686 39.768V20.2321C48.1686 19.7855 47.9303 19.3728 47.5436 19.1495L30.625 9.38158Z" fill="#BCE1FA"></path>
  <mask id="mask0_37_1138" style="mask-type:alpha" maskUnits="userSpaceOnUse" x="10" y="7" width="40" height="46">
    <path d="M28.5 7.86603C29.4282 7.33013 30.5718 7.33013 31.5 7.86603L48.4186 17.634C49.3468 18.1699 49.9186 19.1603 49.9186 20.2321V39.7679C49.9186 40.8397 49.3468 41.8301 48.4186 42.366L31.5 52.134C30.5718 52.6699 29.4282 52.6699 28.5 52.134L11.5814 42.366C10.6532 41.8301 10.0814 40.8397 10.0814 39.7679V20.232C10.0814 19.1603 10.6532 18.1699 11.5814 17.634L28.5 7.86603Z" fill="#F5F6F7"></path>
  </mask>
  <g mask="url(#mask0_37_1138)">
    <path fill-rule="evenodd" clip-rule="evenodd" d="M27.6251 6.35049C29.0948 5.50198 30.9055 5.50199 32.3751 6.35049L49.2937 16.1184C50.7634 16.9669 51.6687 18.535 51.6687 20.2321V39.768C51.6687 41.465 50.7634 43.0331 49.2937 43.8816L32.3751 53.6495C30.9055 54.498 29.0948 54.498 27.6251 53.6495L10.7065 43.8816C9.23689 43.0331 8.33154 41.465 8.33154 39.768V20.2321C8.33154 18.535 9.23689 16.9669 10.7065 16.1184L27.6251 6.35049ZM30.6251 9.38158C30.2384 9.15829 29.7619 9.15829 29.3751 9.38158L12.4565 19.1495C12.0698 19.3728 11.8315 19.7855 11.8315 20.2321V39.768C11.8315 40.2145 12.0698 40.6272 12.4565 40.8505L29.3751 50.6184C29.7619 50.8417 30.2384 50.8417 30.6251 50.6184L47.5437 40.8505C47.9305 40.6272 48.1687 40.2145 48.1687 39.768V20.2321C48.1687 19.7855 47.9305 19.3728 47.5437 19.1495L30.6251 9.38158Z" fill="#62BAF2"></path>
  </g>
  <path d="M17 25L28 31V43L17 37V25Z" fill="#BCE1FA"></path>
  <path d="M43 25L32 31V43L43 37V25Z" fill="white"></path>
  <path d="M29.9998 16L41.1427 22L29.9998 28L18.8569 22L29.9998 16Z" fill="white"></path>
</svg>
